<?xml version="1.0" encoding="utf-8"?>
<!-- Generator: Adobe Illustrator 16.0.0, SVG Export Plug-In . SVG Version: 6.00 Build 0)  -->
<!DOCTYPE svg PUBLIC "-//W3C//DTD SVG 1.1//EN" "http://www.w3.org/Graphics/SVG/1.1/DTD/svg11.dtd">
<svg version="1.1" id="Layer_1" xmlns="http://www.w3.org/2000/svg" xmlns:xlink="http://www.w3.org/1999/xlink" x="0px" y="0px"
	 width="20px" height="20px" viewBox="-3.5 12.375 20 20" enable-background="new -3.5 12.375 20 20" xml:space="preserve">
<path display="none" d="M6.5,14.512c-2.784,0-5.04,2.257-5.04,5.04c0,2.783,3.266,7.702,5.04,10.687
	c2.017-3.389,5.04-7.903,5.04-10.687C11.54,16.769,9.283,14.512,6.5,14.512z M6.5,22.052c-1.347,0-2.439-1.093-2.439-2.439
	c0-1.348,1.092-2.44,2.439-2.44c1.347,0,2.439,1.092,2.439,2.44C8.939,20.959,7.847,22.052,6.5,22.052z"/>
<g display="none">
	<path display="inline" d="M9.862,23.189H9.606c-0.664,1.386-1.803,2.307-3.106,2.307c-1.302,0-2.442-0.921-3.106-2.307H3.14
		c-1.922,0-3.48,1.829-3.48,4.086s4.919,2.969,6.841,2.969c1.923,0,6.841-0.712,6.841-2.969S11.782,23.189,9.862,23.189z"/>
	<ellipse display="inline" cx="6.5" cy="18.941" rx="3.809" ry="4.436"/>
</g>
<g display="none">
	<rect x="2.449" y="17.009" display="inline" width="7.871" height="7.87"/>
	<path display="inline" fill="none" stroke="#000000" stroke-width="1.1176" stroke-miterlimit="10" d="M8.478,17.45
		c0-2.03-0.938-3.679-2.094-3.679c-1.157,0-2.094,1.648-2.094,3.679"/>
	<rect x="-1.835" y="26.02" display="inline" width="16.695" height="1.234"/>
	<rect x="-3" y="24.879" display="inline" width="2.235" height="1.234"/>
	<rect x="13.765" y="24.879" display="inline" width="2.235" height="1.234"/>
	<circle display="inline" cx="2.437" cy="29.432" r="1.548"/>
	<circle display="inline" cx="10.261" cy="29.432" r="1.549"/>
</g>
<g>
	
		<circle fill="none" stroke="#000000" stroke-width="1.5745" stroke-linejoin="round" stroke-miterlimit="10" cx="3.556" cy="19.432" r="5.425"/>
	<rect x="5.559" y="25.641" transform="matrix(0.7072 0.7071 -0.7071 0.7072 21.8715 0.2384)" width="10.178" height="1.763"/>
</g>
<g display="none">
	
		<rect x="-4.519" y="21.47" transform="matrix(0.7071 0.7071 -0.7071 0.7071 17.7261 1.9577)" display="inline" width="22.037" height="1.81"/>
	
		<rect x="-4.519" y="21.47" transform="matrix(-0.7071 0.7071 -0.7071 -0.7071 26.9182 33.6001)" display="inline" width="22.037" height="1.81"/>
</g>
</svg>
