<?xml version="1.0" encoding="utf-8"?>
<!-- Generator: Adobe Illustrator 24.0.1, SVG Export Plug-In . SVG Version: 6.00 Build 0)  -->
<svg version="1.1" id="Capa_1" xmlns="http://www.w3.org/2000/svg" xmlns:xlink="http://www.w3.org/1999/xlink" x="0px" y="0px"
	 viewBox="0 0 200 200" style="enable-background:new 0 0 200 200;" xml:space="preserve">
<style type="text/css">
	.st0{stroke:#000000;stroke-width:4;stroke-miterlimit:10;}
	.st1{stroke:#000000;stroke-width:6;stroke-miterlimit:10;}
	.st2{stroke:#000000;stroke-width:5.1516;stroke-miterlimit:10;}
	.st3{stroke:#000000;stroke-width:5;stroke-miterlimit:10;}
	.st4{stroke:#000000;stroke-width:7;stroke-miterlimit:10;}
</style>
<g>
	<g>
		<path class="st1" d="M65.3,153.6c-10.9,0-19.7,8.8-19.7,19.7S54.4,193,65.3,193s19.7-8.8,19.7-19.7S76.2,153.6,65.3,153.6z
			 M65.3,184.7c-6.3,0-11.4-5.1-11.4-11.4c0-6.3,5.1-11.4,11.4-11.4s11.4,5.1,11.4,11.4C76.7,179.6,71.6,184.7,65.3,184.7z"/>
		<path class="st1" d="M149.8,153.6c-10.9,0-19.7,8.8-19.7,19.7s8.8,19.7,19.7,19.7c10.9,0,19.7-8.8,19.7-19.7
			S160.7,153.6,149.8,153.6z M149.8,184.7c-6.3,0-11.4-5.1-11.4-11.4c0-6.3,5.1-11.4,11.4-11.4c6.3,0,11.4,5.1,11.4,11.4
			C161.2,179.6,156.1,184.7,149.8,184.7z"/>
		<path class="st1" d="M195.4,40.2L195.4,40.2L195.4,40.2c0.5-1.2,0.2-2.6-0.6-3.5c-0.9-0.9-2.1-1.5-3.4-1.7L46.6,33h-0.2l-0.1-0.2
			l-4-12.2C39.6,12.5,32,7.1,23.5,7H8.6c-2.3,0-4.2,1.9-4.2,4.2s1.9,4.2,4.2,4.2h14.9c4.9,0.1,9.3,3.3,11,8l28.2,85.2l0,0.1
			l-0.1,0.1l-2.2,5.1c-2.4,6.3-1.7,13.4,2,19.1c3.7,5.6,9.8,9,16.5,9.2h86.5c2.3,0,4.2-1.9,4.2-4.2c0-2.3-1.9-4.2-4.2-4.2H78.9
			c-3.9-0.1-7.5-2.1-9.6-5.5c-2.1-3.3-2.5-7.3-1.1-10.9l0,0l0,0l1.8-4l0.1-0.1l0.2,0l93.6-9.8c10.1-1.1,18.5-8.5,20.9-18.5
			L195.4,40.2z M176.6,83c-1.5,6.6-7,11.5-13.8,12l-92.5,9.6l-0.2,0l-0.1-0.2L49.3,41.7l-0.1-0.4h0.4l136.3,2h0.4l-0.1,0.3L176.6,83
			z"/>
	</g>
</g>
</svg>
