<?xml version="1.0" encoding="utf-8"?>
<!-- Generator: Adobe Illustrator 24.0.1, SVG Export Plug-In . SVG Version: 6.00 Build 0)  -->
<svg version="1.1" id="Capa_1" xmlns="http://www.w3.org/2000/svg" xmlns:xlink="http://www.w3.org/1999/xlink" x="0px" y="0px"
	 viewBox="0 0 200 200" style="enable-background:new 0 0 200 200;" xml:space="preserve">
<style type="text/css">
	.st0{stroke:#000000;stroke-width:4;stroke-miterlimit:10;}
	.st1{stroke:#000000;stroke-width:6;stroke-miterlimit:10;}
	.st2{stroke:#000000;stroke-width:5.1516;stroke-miterlimit:10;}
	.st3{stroke:#000000;stroke-width:5.2296;stroke-miterlimit:10;}
	.st4{stroke:#000000;stroke-width:5;stroke-miterlimit:10;}
	.st5{stroke:#000000;stroke-width:7;stroke-miterlimit:10;}
</style>
<g>
	<g>
		<path class="st5" d="M181.9,153.5c-3.6-10.4-9-19.3-16-26.4c-7-7.1-15.9-12.6-26.2-16.2c-10.5-3.7-22.8-5.6-36.4-5.6
			s-25.8,1.9-36.4,5.6c-10.3,3.6-19.1,9.1-26.2,16.2c-7,7.1-12.4,16-16,26.4c-3.7,10.6-5.5,22.9-5.5,36.6c0,2.7,1.7,4.8,3.7,4.8
			h160.8c2.1,0,3.7-2.2,3.7-4.8C187.5,176.4,185.6,164.1,181.9,153.5z M26.6,186.6l0-1.6l0-0.7l0.1-2.4c2.8-44.4,29-68.5,76.9-68.5
			s73.2,24.1,76,68.5l0.1,2.4l0,0.7l0,1.6H26.6z"/>
		<path class="st5" d="M134.4,17.7C126.4,9.5,115.3,5,103.3,5S80.2,9.5,72.2,17.7c-8.1,8.2-12.5,19.5-12.5,31.9
			c0,26.2,19.6,47.6,43.7,47.6S147,75.8,147,49.6C147,37.2,142.5,25.9,134.4,17.7z M103.3,89.2c-19.8,0-35.9-17.8-35.9-39.6
			c0-21.2,15.1-36.6,35.9-36.6c20.5,0,35.9,15.7,35.9,36.6C139.2,71.4,123.1,89.2,103.3,89.2z"/>
	</g>
</g>
</svg>
